<svg width="1870" height="500" viewBox="0 0 1870 500" fill="none" xmlns="http://www.w3.org/2000/svg">
<path d="M163.32 83.2H0V0H161C332.81 0 343.59 260.4 194.9 293.53C184.12 296.61 173.33 297.38 161 297.38H84V500H0V213.41L84 298.15L287.36 500H401.36L114.79 213.41H163.32C234.97 213.41 234.97 83.2 163.32 83.2Z" fill="black"/>
<path d="M559.994 318.683C559.994 295.161 556.251 258.468 526.779 230.242C501.985 206.72 470.641 201.546 446.314 201.546C405.146 201.546 378.013 215.188 360.704 232.124C342.459 250 329.36 278.226 329.36 313.508C329.36 353.495 346.669 379.368 360.236 393.011C385.966 418.884 419.181 425 446.782 425C492.16 425 516.487 410.887 531.925 395.833C547.363 380.78 553.912 364.314 557.187 352.554H485.611C482.336 359.14 477.19 363.844 472.512 366.667C463.156 371.841 450.057 372.312 448.186 372.312C431.344 372.312 421.988 366.667 417.31 361.962C408.421 353.024 404.211 337.97 404.211 326.68H559.994V318.683ZM406.55 283.401C407.953 273.992 412.632 266.465 417.777 260.82C425.73 252.823 435.555 249.53 448.186 249.53C455.671 249.53 469.237 250.941 479.062 260.82C484.675 266.465 489.354 275.403 491.225 283.401H406.55Z" fill="black"/>
<path d="M603.223 75V417.944H678.074V75H603.223Z" fill="black"/>
<path d="M728.858 207.661V338.911C728.858 359.14 732.6 377.957 748.506 394.892C773.3 421.707 811.661 425 843.005 425C871.542 425 907.564 422.177 933.294 395.363C952.007 376.075 953.41 356.788 953.41 338.911V207.661H878.559V325.269C878.559 334.677 877.156 345.497 867.8 354.906C859.379 362.903 850.49 363.844 841.134 363.844C832.245 363.844 822.421 362.433 814.936 355.847C805.112 346.909 803.709 333.737 803.709 325.269V207.661H728.858Z" fill="black"/>
<path d="M1162.92 350.202C1149.35 361.962 1135.32 364.315 1124.56 364.315C1105.38 364.315 1093.21 355.847 1086.2 348.32C1077.31 338.441 1073.1 324.798 1073.1 313.038C1073.1 300.806 1077.31 287.164 1087.6 276.815C1095.09 269.288 1106.31 262.231 1124.09 262.231C1140 262.231 1153.1 268.817 1162.92 275.874V212.836C1144.21 203.427 1127.37 201.075 1114.27 201.075C1078.71 201.075 1049.71 214.247 1030.06 233.065C1009.01 253.763 996.376 283.401 996.376 314.449C996.376 345.497 1009.01 373.723 1028.66 393.011C1043.63 407.594 1070.29 425 1110.99 425C1126.43 425 1142.8 423.118 1162.92 413.239V350.202Z" fill="black"/>
<path d="M1427.1 318.683C1427.1 295.161 1423.36 258.468 1393.89 230.242C1369.09 206.72 1337.75 201.546 1313.42 201.546C1272.25 201.546 1245.12 215.188 1227.81 232.124C1209.57 250 1196.47 278.226 1196.47 313.508C1196.47 353.495 1213.78 379.368 1227.34 393.011C1253.07 418.884 1286.29 425 1313.89 425C1359.27 425 1383.59 410.887 1399.03 395.833C1414.47 380.78 1421.02 364.314 1424.29 352.554H1352.72C1349.44 359.14 1344.3 363.844 1339.62 366.667C1330.26 371.841 1317.16 372.312 1315.29 372.312C1298.45 372.312 1289.09 366.667 1284.42 361.962C1275.53 353.024 1271.32 337.97 1271.32 326.68H1427.1V318.683ZM1273.66 283.401C1275.06 273.992 1279.74 266.465 1284.88 260.82C1292.84 252.823 1302.66 249.53 1315.29 249.53C1322.78 249.53 1336.34 250.941 1346.17 260.82C1351.78 266.465 1356.46 275.403 1358.33 283.401H1273.66Z" fill="black"/>
<path d="M1470.33 417.944H1545.18V305.04C1545.18 292.339 1549.86 278.696 1557.34 271.64C1563.43 265.995 1573.25 261.761 1584.95 261.761C1592.43 261.761 1601.79 263.172 1608.8 270.699C1618.63 281.048 1618.16 299.395 1618.16 311.626V417.944H1693.01V284.341C1693.01 261.29 1691.14 243.414 1673.36 225.538C1656.05 208.132 1633.13 202.957 1611.61 202.957C1593.37 202.957 1565.76 206.72 1545.18 234.005V207.661H1470.33V417.944Z" fill="black"/>
<path d="M1869.36 269.288V207.661H1826.79V138.508H1751.94V207.661H1728.08V269.288H1751.94V417.944H1826.79V269.288H1869.36Z" fill="black"/>
</svg>
